<?xml version="1.0" encoding="UTF-8" standalone="no"?>
<!-- Created with Inkscape (http://www.inkscape.org/) -->

<svg
   xmlns:dc="http://purl.org/dc/elements/1.1/"
   xmlns:cc="http://creativecommons.org/ns#"
   xmlns:rdf="http://www.w3.org/1999/02/22-rdf-syntax-ns#"
   xmlns:svg="http://www.w3.org/2000/svg"
   xmlns="http://www.w3.org/2000/svg"
   xmlns:sodipodi="http://sodipodi.sourceforge.net/DTD/sodipodi-0.dtd"
   xmlns:inkscape="http://www.inkscape.org/namespaces/inkscape"
   width="72.831001mm"
   height="79.646507mm"
   viewBox="0 0 72.831001 79.646507"
   version="1.1"
   id="svg8"
   inkscape:version="0.92.4 (5da689c313, 2019-01-14)"
   sodipodi:docname="csharp.svg">
  <defs
     id="defs2" />
  <sodipodi:namedview
     id="base"
     pagecolor="#ffffff"
     bordercolor="#666666"
     borderopacity="1.0"
     inkscape:pageopacity="0.0"
     inkscape:pageshadow="2"
     inkscape:zoom="2.8"
     inkscape:cx="187.30548"
     inkscape:cy="204.7498"
     inkscape:document-units="mm"
     inkscape:current-layer="g4582"
     showgrid="false"
     inkscape:snap-smooth-nodes="false"
     inkscape:object-paths="true"
     inkscape:window-width="1280"
     inkscape:window-height="962"
     inkscape:window-x="-8"
     inkscape:window-y="-8"
     inkscape:window-maximized="1"
     inkscape:object-nodes="false"
     fit-margin-top="0"
     fit-margin-left="0"
     fit-margin-right="0"
     fit-margin-bottom="0"
     showguides="false" />
  <metadata
     id="metadata5">
    <rdf:RDF>
      <cc:Work
         rdf:about="">
        <dc:format>image/svg+xml</dc:format>
        <dc:type
           rdf:resource="http://purl.org/dc/dcmitype/StillImage" />
        <dc:title></dc:title>
      </cc:Work>
    </rdf:RDF>
  </metadata>
  <g
     inkscape:label="Layer 1"
     inkscape:groupmode="layer"
     id="layer1"
     transform="translate(1215.785,-264.94706)">
    <path
       sodipodi:nodetypes="cccccc"
       inkscape:connector-curvature="0"
       id="path5061-5"
       d="m -1215.785,264.94706 h 72.831 l -6.2808,72.02914 -30.3017,7.61718 -29.5667,-7.61718 z"
       style="opacity:1;fill:#b04e99;fill-opacity:1;stroke:none;stroke-width:0.26458332;stroke-opacity:1" />
    <g
       id="g4582">
      <g
         transform="matrix(1.0806197,0,0,1.0806197,95.264511,-24.460616)"
         id="text4567"
         style="font-style:normal;font-variant:normal;font-weight:normal;font-stretch:normal;font-size:68.93235779px;line-height:1.25;font-family:'Kenney Future';-inkscape-font-specification:'Kenney Future';letter-spacing:0px;word-spacing:0px;fill:#ffffff;fill-opacity:1;stroke:#ffffff;stroke-width:2.18578291;stroke-miterlimit:4;stroke-dasharray:none;stroke-opacity:1"
         aria-label="C">
        <path
           sodipodi:nodetypes="cscscsccscscscc"
           inkscape:connector-curvature="0"
           id="path4569"
           style="font-style:normal;font-variant:normal;font-weight:bold;font-stretch:normal;font-family:'Cordia New';-inkscape-font-specification:'Cordia New Bold';fill:#ffffff;stroke:#ffffff;stroke-width:2.18578291;stroke-miterlimit:4;stroke-dasharray:none;stroke-opacity:1"
           d="m -1168.4524,314.01836 c -2.3629,4.07271 -6.2103,6.10906 -11.5421,6.10906 -5.2171,0 -10.1671,-1.63804 -12.6242,-4.91413 -2.4459,-3.27608 -4.5344,-7.29265 -4.5344,-12.0497 0,-5.46387 2.3466,-9.5758 5.3086,-12.33579 2.9619,-2.75999 7.6764,-4.13998 11.9173,-4.13998 5.1366,0 8.8381,1.84756 11.1045,5.54266 l -4.0319,1.70221 c -1.6187,-2.38407 -4.0043,-3.57611 -7.1568,-3.57611 -3.8258,0 -7.6876,1.21731 -9.3593,3.65193 -1.6717,2.43463 -3.3731,5.48071 -3.3731,9.13825 0,4.67852 1.8585,8.0668 3.8444,10.16483 1.9858,2.09804 5.5839,3.14706 8.5683,3.14706 3.6572,0 6.7788,-1.60222 8.4294,-4.40577 z" />
      </g>
      <text
         xml:space="preserve"
         style="font-style:normal;font-variant:normal;font-weight:normal;font-stretch:normal;font-size:17.53809547px;line-height:1.25;font-family:'Kenney Future';-inkscape-font-specification:'Kenney Future';letter-spacing:0px;word-spacing:0px;fill:#f9f9f9;fill-opacity:1;stroke:none;stroke-width:0.43845236"
         x="-1169.4828"
         y="308.11887"
         id="text4630"><tspan
           sodipodi:role="line"
           id="tspan4628"
           x="-1169.4828"
           y="308.11887"
           style="font-style:normal;font-variant:normal;font-weight:normal;font-stretch:normal;font-family:'Kenney Future';-inkscape-font-specification:'Kenney Future';fill:#f9f9f9;stroke-width:0.43845236">#</tspan></text>
    </g>
    <path
       inkscape:connector-curvature="0"
       style="opacity:0.169;fill:#000000;fill-opacity:1;stroke:none;stroke-width:0.26458332;stroke-opacity:1"
       d="m -1215.7849,264.94727 6.6818,72.02868 29.5666,7.61762 30.3015,-7.61762 6.2808,-72.02868 z m 35.3524,7.88429 h 30.2689 l -5.0374,57.76804 -24.3024,6.10917 z"
       id="path5065-3" />
    <g
       aria-label="W"
       style="font-style:normal;font-weight:normal;font-size:63.71085358px;line-height:1.25;font-family:sans-serif;letter-spacing:0px;word-spacing:0px;opacity:1;fill:#ffffff;fill-opacity:0.95454544;stroke:none;stroke-width:1.59277141"
       id="g4887"
       transform="matrix(0.85097917,0,0,0.85097917,-587.4888,52.903895)" />
    <path
       style="opacity:0;fill:#ffffff;fill-opacity:1;stroke:none;stroke-width:0.26458332px;stroke-linecap:butt;stroke-linejoin:miter;stroke-opacity:1"
       d="m -1200.779,279.59742 46.0373,1.9e-4 -0.7847,8.9985 -20.5999,9.23934 19.7668,0.31643 -2.3523,26.97613 -19.154,4.8152 -18.6896,-4.81504 -1.2556,-13.53508 9.5083,-0.0544 0.6775,7.19108 10.0114,2.65322 10.0228,-2.58466 1.2838,-11.64177 -31.9299,-0.15735 -0.9212,-9.92988 20.7076,-9.06564 -21.5807,-0.3466 z"
       id="path5055-9"
       inkscape:connector-curvature="0"
       sodipodi:nodetypes="ccccccccccccccccccc" />
    <g
       aria-label="C"
       transform="matrix(1.5452248,0,0,1.5452248,-1280.3295,111.08857)"
       style="font-style:normal;font-variant:normal;font-weight:normal;font-stretch:normal;font-size:40px;line-height:1.25;font-family:'Kenney Future';-inkscape-font-specification:'Kenney Future';letter-spacing:0px;word-spacing:0px;fill:#ffffff;fill-opacity:1;stroke:none;stroke-width:1.20051968;stroke-miterlimit:4;stroke-dasharray:none;stroke-opacity:1"
       id="flowRoot832" />
  </g>
</svg>
