<?xml version="1.0" encoding="UTF-8" standalone="no"?>
<!-- Created with Inkscape (http://www.inkscape.org/) -->

<svg
   xmlns:dc="http://purl.org/dc/elements/1.1/"
   xmlns:cc="http://creativecommons.org/ns#"
   xmlns:rdf="http://www.w3.org/1999/02/22-rdf-syntax-ns#"
   xmlns:svg="http://www.w3.org/2000/svg"
   xmlns="http://www.w3.org/2000/svg"
   xmlns:sodipodi="http://sodipodi.sourceforge.net/DTD/sodipodi-0.dtd"
   xmlns:inkscape="http://www.inkscape.org/namespaces/inkscape"
   width="72.830948mm"
   height="79.646507mm"
   viewBox="0 0 72.830948 79.646507"
   version="1.1"
   id="svg8"
   inkscape:version="0.92.4 (5da689c313, 2019-01-14)"
   sodipodi:docname="css.svg">
  <defs
     id="defs2" />
  <sodipodi:namedview
     id="base"
     pagecolor="#ffffff"
     bordercolor="#666666"
     borderopacity="1.0"
     inkscape:pageopacity="0.0"
     inkscape:pageshadow="2"
     inkscape:zoom="0.98994949"
     inkscape:cx="463.27585"
     inkscape:cy="61.401428"
     inkscape:document-units="mm"
     inkscape:current-layer="layer1"
     showgrid="false"
     inkscape:snap-smooth-nodes="false"
     inkscape:object-paths="true"
     inkscape:window-width="1280"
     inkscape:window-height="962"
     inkscape:window-x="-8"
     inkscape:window-y="-8"
     inkscape:window-maximized="1"
     inkscape:object-nodes="false"
     fit-margin-top="0"
     fit-margin-left="0"
     fit-margin-right="0"
     fit-margin-bottom="0" />
  <metadata
     id="metadata5">
    <rdf:RDF>
      <cc:Work
         rdf:about="">
        <dc:format>image/svg+xml</dc:format>
        <dc:type
           rdf:resource="http://purl.org/dc/dcmitype/StillImage" />
        <dc:title></dc:title>
      </cc:Work>
    </rdf:RDF>
  </metadata>
  <g
     inkscape:label="Layer 1"
     inkscape:groupmode="layer"
     id="layer1"
     transform="translate(1214.1759,-264.94706)">
    <g
       aria-label="W"
       style="font-style:normal;font-weight:normal;font-size:63.71085358px;line-height:1.25;font-family:sans-serif;letter-spacing:0px;word-spacing:0px;opacity:1;fill:#ffffff;fill-opacity:0.95454544;stroke:none;stroke-width:1.59277141"
       id="g4887"
       transform="matrix(0.85097917,0,0,0.85097917,-587.4888,52.903895)" />
    <g
       id="g1126"
       transform="translate(-1010.2671,-178.16332)">
      <g
         id="g885"
         transform="translate(-9.4604246,162.42048)">
        <path
           sodipodi:nodetypes="cccccc"
           inkscape:connector-curvature="0"
           id="path5061-5"
           d="m -194.44835,280.6899 h 72.83095 l -6.28084,72.02914 -30.30169,7.61718 -29.56668,-7.61718 z"
           style="opacity:1;fill:#29a9df;fill-opacity:1;stroke:none;stroke-width:0.26458332;stroke-opacity:1" />
        <path
           sodipodi:nodetypes="ccccccccccccccccc"
           inkscape:connector-curvature="0"
           id="path5063-1"
           d="m -181.05152,295.34026 2.5419,27.40177 31.92996,0.15734 -1.28379,11.64179 -10.02288,2.58466 -10.01135,-2.65323 -0.67751,-7.19108 -9.50828,0.0544 1.25557,13.53508 18.68957,4.81506 19.15405,-4.81521 2.35224,-26.97612 -33.04735,-0.31252 -0.79989,-9.16217 34.68041,-0.0811 0.78465,-8.9985 z"
           style="fill:#29a9df;fill-opacity:1;stroke:none;stroke-width:0.16724709px;stroke-linecap:butt;stroke-linejoin:miter;stroke-opacity:1" />
        <path
           style="opacity:0;fill:#ffffff;fill-opacity:1;stroke:none;stroke-width:0.26458332px;stroke-linecap:butt;stroke-linejoin:miter;stroke-opacity:1"
           d="m -181.05152,295.34026 46.0373,1.9e-4 -0.78465,8.9985 -20.59992,9.23934 19.76675,0.31643 -2.35224,26.97613 -19.15405,4.8152 -18.68957,-4.81504 -1.25558,-13.53508 9.50829,-0.0544 0.67751,7.19108 10.01135,2.65322 10.02288,-2.58466 1.28379,-11.64177 -31.92995,-0.15735 -0.92114,-9.92988 20.70753,-9.06564 -21.58065,-0.3466 z"
           id="path5055-9"
           inkscape:connector-curvature="0"
           sodipodi:nodetypes="ccccccccccccccccccc" />
        <g
           aria-label="3"
           style="font-style:normal;font-weight:normal;font-size:76.28312683px;line-height:1.25;font-family:sans-serif;letter-spacing:0px;word-spacing:0px;fill:#ffffff;fill-opacity:1;stroke:none;stroke-width:1.90707803"
           id="text870">
          <path
             d="m -176.06928,342.6114 -1.40317,-8.87393 h 29.67984 l 1.03943,-9.53539 h -31.85517 l -1.06908,-9.53539 h 34.34166 l 1.22843,-9.5354 h -36.7728 l -0.80181,-9.53539 h 38.14157 c 2.63217,0 4.86702,0.94361 6.70457,2.83082 1.88721,1.88721 3.16547,4.14384 2.83082,6.70457 l -3.73842,28.60618 c -0.34752,2.65922 -0.94361,4.28005 -2.83082,6.1176 -1.88721,1.83755 -4.12207,2.75633 -6.70457,2.75633 z"
             style="font-style:normal;font-variant:normal;font-weight:bold;font-stretch:normal;font-family:'Kenney Future';-inkscape-font-specification:'Kenney Future Bold';fill:#ffffff;stroke-width:1.90707803"
             id="path872"
             inkscape:connector-curvature="0"
             sodipodi:nodetypes="ccccccccccscsscsc" />
        </g>
        <path
           inkscape:connector-curvature="0"
           style="opacity:0.169;fill:#000000;fill-opacity:1;stroke:none;stroke-width:0.26458332;stroke-opacity:1"
           d="m -194.44831,280.69011 6.68177,72.02868 29.56667,7.61762 30.30151,-7.61762 6.28075,-72.02868 z m 35.35237,7.88429 h 30.26895 l -5.03742,57.76804 -24.30239,6.10917 z"
           id="path5065-3" />
      </g>
    </g>
  </g>
</svg>
