<?xml version="1.0" encoding="UTF-8" standalone="no"?>
<!-- Created with Inkscape (http://www.inkscape.org/) -->

<svg
   xmlns:dc="http://purl.org/dc/elements/1.1/"
   xmlns:cc="http://creativecommons.org/ns#"
   xmlns:rdf="http://www.w3.org/1999/02/22-rdf-syntax-ns#"
   xmlns:svg="http://www.w3.org/2000/svg"
   xmlns="http://www.w3.org/2000/svg"
   xmlns:sodipodi="http://sodipodi.sourceforge.net/DTD/sodipodi-0.dtd"
   xmlns:inkscape="http://www.inkscape.org/namespaces/inkscape"
   width="72.830948mm"
   height="79.646507mm"
   viewBox="0 0 72.830948 79.646507"
   version="1.1"
   id="svg8"
   inkscape:version="0.92.4 (5da689c313, 2019-01-14)"
   sodipodi:docname="html.svg">
  <defs
     id="defs2" />
  <sodipodi:namedview
     id="base"
     pagecolor="#ffffff"
     bordercolor="#666666"
     borderopacity="1.0"
     inkscape:pageopacity="0.0"
     inkscape:pageshadow="2"
     inkscape:zoom="0.70000002"
     inkscape:cx="279.00307"
     inkscape:cy="252.21503"
     inkscape:document-units="mm"
     inkscape:current-layer="layer1"
     showgrid="false"
     inkscape:snap-smooth-nodes="false"
     inkscape:object-paths="true"
     inkscape:window-width="1280"
     inkscape:window-height="962"
     inkscape:window-x="-8"
     inkscape:window-y="-8"
     inkscape:window-maximized="1"
     inkscape:object-nodes="false"
     fit-margin-top="0"
     fit-margin-left="0"
     fit-margin-right="0"
     fit-margin-bottom="0" />
  <metadata
     id="metadata5">
    <rdf:RDF>
      <cc:Work
         rdf:about="">
        <dc:format>image/svg+xml</dc:format>
        <dc:type
           rdf:resource="http://purl.org/dc/dcmitype/StillImage" />
        <dc:title></dc:title>
      </cc:Work>
    </rdf:RDF>
  </metadata>
  <g
     inkscape:label="Layer 1"
     inkscape:groupmode="layer"
     id="layer1"
     transform="translate(1121.297,-265.74234)">
    <g
       aria-label="W"
       style="font-style:normal;font-weight:normal;font-size:63.71085358px;line-height:1.25;font-family:sans-serif;letter-spacing:0px;word-spacing:0px;opacity:1;fill:#ffffff;fill-opacity:0.95454544;stroke:none;stroke-width:1.59277141"
       id="g4887"
       transform="matrix(0.85097917,0,0,0.85097917,-587.4888,52.903895)" />
    <g
       id="g1133"
       transform="translate(-830.07916,-178.1765)">
      <path
         sodipodi:nodetypes="cccccc"
         inkscape:connector-curvature="0"
         id="path4883-5"
         d="m -291.2178,443.91884 h 72.83095 l -6.28084,72.02914 -30.30169,7.61718 -29.56668,-7.61718 z"
         style="opacity:1;fill:#f16529;fill-opacity:1;stroke:none;stroke-width:0.26458332;stroke-opacity:1" />
      <path
         sodipodi:nodetypes="ccccccccccccccccc"
         inkscape:connector-curvature="0"
         id="path5045-9"
         d="m -277.82097,458.5692 2.5419,27.40177 31.92996,0.15734 -1.28379,11.64179 -10.02288,2.58466 -10.01135,-2.65323 -0.67751,-7.19108 -9.50828,0.0544 1.25557,13.53508 18.68957,4.81506 19.15405,-4.81521 2.35224,-26.97612 -33.04735,-0.31252 -0.79989,-9.16217 34.68041,-0.0811 0.78465,-8.9985 z"
         style="opacity:0;fill:#ffffff;stroke:none;stroke-width:0.1672471px;stroke-linecap:butt;stroke-linejoin:miter;stroke-opacity:1" />
      <g
         id="text860"
         style="font-style:normal;font-weight:normal;font-size:69.66418457px;line-height:1.25;font-family:sans-serif;letter-spacing:0px;word-spacing:0px;fill:#ffffff;fill-opacity:1;stroke:none;stroke-width:1.74160457"
         aria-label="5"
         transform="translate(-9.4604246,162.42048)">
        <path
           sodipodi:nodetypes="ccccccccccccscssssc"
           inkscape:connector-curvature="0"
           id="path865"
           style="font-style:normal;font-variant:normal;font-weight:bold;font-stretch:normal;font-family:'Kenney Future';-inkscape-font-specification:'Kenney Future Bold';fill:#ffffff;stroke-width:1.74160457"
           d="m -261.72202,340.35992 -1.37016,-8.70802 h 27.64059 l 0.63783,-8.70802 h -20.0468 c -7.80156,0 -10.56455,0.83672 -10.6924,-8.70802 l -0.96395,-8.70803 c -1.48521,-9.37911 -1.78139,-8.70802 7.78209,-8.70802 h 35.73609 l -1.1693,8.70802 h -34.56679 l 1.32292,8.70803 h 22.59814 c 2.40378,0 4.91719,0.43651 6.5953,2.15997 1.72346,1.72346 2.41726,4.20936 2.11272,6.54805 l -1.13393,8.70802 c -0.31625,2.42863 -1.09797,4.51275 -2.82143,6.19086 -1.72346,1.67811 -3.7644,2.51716 -6.12283,2.51716 z" />
      </g>
      <path
         inkscape:connector-curvature="0"
         style="opacity:0.169;fill:#000000;fill-opacity:1;stroke:none;stroke-width:0.26458332;stroke-opacity:1"
         d="m -291.21776,443.91905 6.68177,72.02868 29.56667,7.61762 30.30151,-7.61762 6.28075,-72.02868 z m 35.35237,7.88429 h 30.26895 l -5.03742,57.76804 -24.30239,6.10917 z"
         id="path4889-6" />
    </g>
    <g
       transform="translate(-830.07916,-178.1765)"
       id="g835">
      <path
         style="opacity:1;fill:#f16529;fill-opacity:1;stroke:none;stroke-width:0.26458332;stroke-opacity:1"
         d="m -291.2178,443.91884 h 72.83095 l -6.28084,72.02914 -30.30169,7.61718 -29.56668,-7.61718 z"
         id="path825"
         inkscape:connector-curvature="0"
         sodipodi:nodetypes="cccccc" />
      <path
         style="opacity:0;fill:#ffffff;stroke:none;stroke-width:0.1672471px;stroke-linecap:butt;stroke-linejoin:miter;stroke-opacity:1"
         d="m -277.82097,458.5692 2.5419,27.40177 31.92996,0.15734 -1.28379,11.64179 -10.02288,2.58466 -10.01135,-2.65323 -0.67751,-7.19108 -9.50828,0.0544 1.25557,13.53508 18.68957,4.81506 19.15405,-4.81521 2.35224,-26.97612 -33.04735,-0.31252 -0.79989,-9.16217 34.68041,-0.0811 0.78465,-8.9985 z"
         id="path827"
         inkscape:connector-curvature="0"
         sodipodi:nodetypes="ccccccccccccccccc" />
      <g
         transform="translate(-9.4604246,162.42048)"
         aria-label="5"
         style="font-style:normal;font-weight:normal;font-size:69.66418457px;line-height:1.25;font-family:sans-serif;letter-spacing:0px;word-spacing:0px;fill:#ffffff;fill-opacity:1;stroke:none;stroke-width:1.74160457"
         id="g831">
        <path
           d="m -261.72202,340.35992 -1.37016,-8.70802 h 27.64059 l 0.63783,-8.70802 h -20.0468 c -7.80156,0 -10.56455,0.83672 -10.6924,-8.70802 l -0.96395,-8.70803 c -1.48521,-9.37911 -1.78139,-8.70802 7.78209,-8.70802 h 35.73609 l -1.1693,8.70802 h -34.56679 l 1.32292,8.70803 h 22.59814 c 2.40378,0 4.91719,0.43651 6.5953,2.15997 1.72346,1.72346 2.41726,4.20936 2.11272,6.54805 l -1.13393,8.70802 c -0.31625,2.42863 -1.09797,4.51275 -2.82143,6.19086 -1.72346,1.67811 -3.7644,2.51716 -6.12283,2.51716 z"
           style="font-style:normal;font-variant:normal;font-weight:bold;font-stretch:normal;font-family:'Kenney Future';-inkscape-font-specification:'Kenney Future Bold';fill:#ffffff;stroke-width:1.74160457"
           id="path829"
           inkscape:connector-curvature="0"
           sodipodi:nodetypes="ccccccccccccscssssc" />
      </g>
      <path
         id="path833"
         d="m -291.21776,443.91905 6.68177,72.02868 29.56667,7.61762 30.30151,-7.61762 6.28075,-72.02868 z m 35.35237,7.88429 h 30.26895 l -5.03742,57.76804 -24.30239,6.10917 z"
         style="opacity:0.169;fill:#000000;fill-opacity:1;stroke:none;stroke-width:0.26458332;stroke-opacity:1"
         inkscape:connector-curvature="0" />
    </g>
  </g>
</svg>
