<?xml version="1.0" encoding="UTF-8" standalone="no"?>
<!-- Created with Inkscape (http://www.inkscape.org/) -->

<svg
   xmlns:dc="http://purl.org/dc/elements/1.1/"
   xmlns:cc="http://creativecommons.org/ns#"
   xmlns:rdf="http://www.w3.org/1999/02/22-rdf-syntax-ns#"
   xmlns:svg="http://www.w3.org/2000/svg"
   xmlns="http://www.w3.org/2000/svg"
   xmlns:sodipodi="http://sodipodi.sourceforge.net/DTD/sodipodi-0.dtd"
   xmlns:inkscape="http://www.inkscape.org/namespaces/inkscape"
   width="72.830902mm"
   height="79.646507mm"
   viewBox="0 0 72.830902 79.646507"
   version="1.1"
   id="svg8"
   inkscape:version="0.92.4 (5da689c313, 2019-01-14)"
   sodipodi:docname="jq.svg">
  <defs
     id="defs2" />
  <sodipodi:namedview
     id="base"
     pagecolor="#ffffff"
     bordercolor="#666666"
     borderopacity="1.0"
     inkscape:pageopacity="0.0"
     inkscape:pageshadow="2"
     inkscape:zoom="0.49497476"
     inkscape:cx="744.2032"
     inkscape:cy="287.50432"
     inkscape:document-units="mm"
     inkscape:current-layer="layer1"
     showgrid="false"
     inkscape:snap-smooth-nodes="false"
     inkscape:object-paths="true"
     inkscape:window-width="1280"
     inkscape:window-height="962"
     inkscape:window-x="-8"
     inkscape:window-y="-8"
     inkscape:window-maximized="1"
     inkscape:object-nodes="false"
     fit-margin-top="0"
     fit-margin-left="0"
     fit-margin-right="0"
     fit-margin-bottom="0" />
  <metadata
     id="metadata5">
    <rdf:RDF>
      <cc:Work
         rdf:about="">
        <dc:format>image/svg+xml</dc:format>
        <dc:type
           rdf:resource="http://purl.org/dc/dcmitype/StillImage" />
        <dc:title></dc:title>
      </cc:Work>
    </rdf:RDF>
  </metadata>
  <g
     inkscape:label="Layer 1"
     inkscape:groupmode="layer"
     id="layer1"
     transform="translate(1269.2334,-288.72722)">
    <g
       aria-label="W"
       style="font-style:normal;font-weight:normal;font-size:63.71085358px;line-height:1.25;font-family:sans-serif;letter-spacing:0px;word-spacing:0px;opacity:1;fill:#ffffff;fill-opacity:0.95454544;stroke:none;stroke-width:1.59277141"
       id="g4887"
       transform="matrix(0.85097917,0,0,0.85097917,-587.4888,52.903895)" />
    <path
       style="opacity:1;fill:#0abdde;fill-opacity:1;stroke:none;stroke-width:0.26458332;stroke-opacity:1"
       d="m -1269.2334,288.72722 h 72.8309 l -6.2808,72.02914 -30.3017,7.61718 -29.5667,-7.61718 z"
       id="path1139"
       inkscape:connector-curvature="0"
       sodipodi:nodetypes="cccccc" />
    <g
       id="g1350"
       transform="translate(-1183.9676,-154.73647)">
      <g
         transform="matrix(1.3918358,0,0,1.3918358,23.521004,-193.9517)"
         id="g1325">
        <g
           aria-label="C"
           style="font-style:normal;font-weight:normal;font-size:42.22804642px;line-height:1.25;font-family:sans-serif;letter-spacing:0px;word-spacing:0px;fill:#ffffff;fill-opacity:1;stroke:none;stroke-width:1.05570114"
           id="text1303"
           transform="rotate(-60,-49.094891,550.24222)">
          <path
             d="m -5.5446248,531.04629 c -1.4845793,0 -2.735475,-0.50861 -3.752687,-1.52582 -1.0172122,-1.04471 -1.5258182,-2.2956 -1.5258182,-3.75269 v -15.83552 c 0,-1.45709 0.508606,-2.69424 1.5258182,-3.71145 1.044704,-1.0447 2.2955997,-1.56705 3.752687,-1.56705 h 4.2063946 c 2.15171705,0 2.32479709,5.2785 0,5.2785 h -4.2063946 v 15.83552 h 4.2063946 c 2.02711468,0 2.17483217,5.27851 0,5.27851 z"
             style="font-style:normal;font-variant:normal;font-weight:normal;font-stretch:normal;font-family:'Kenney Future';-inkscape-font-specification:'Kenney Future';fill:#ffffff;stroke-width:1.05570114"
             id="path1308"
             inkscape:connector-curvature="0"
             sodipodi:nodetypes="scsscsccccccs" />
          <path
             sodipodi:nodetypes="scsscsccccccs"
             inkscape:connector-curvature="0"
             id="path1352"
             style="font-style:normal;font-variant:normal;font-weight:normal;font-stretch:normal;font-family:'Kenney Future';-inkscape-font-specification:'Kenney Future';fill:#ffffff;stroke-width:1.05570114"
             d="m -5.5446248,531.04629 c -1.4845793,0 -2.735475,-0.50861 -3.752687,-1.52582 -1.0172122,-1.04471 -1.5258182,-2.2956 -1.5258182,-3.75269 v -15.83552 c 0,-1.45709 0.508606,-2.69424 1.5258182,-3.71145 1.044704,-1.0447 2.2955997,-1.56705 3.752687,-1.56705 h 4.2063946 c 2.15171705,0 2.32479709,5.2785 0,5.2785 h -4.2063946 v 15.83552 h 4.2063946 c 2.02711468,0 2.17483217,5.27851 0,5.27851 z" />
        </g>
        <g
           transform="matrix(0.29451456,-0.51011419,0.51011419,0.29451456,-310.23341,329.42636)"
           id="g1313"
           style="font-style:normal;font-weight:normal;font-size:42.22804642px;line-height:1.25;font-family:sans-serif;letter-spacing:0px;word-spacing:0px;fill:#ffffff;fill-opacity:1;stroke:none;stroke-width:1.05570114"
           aria-label="C">
          <path
             sodipodi:nodetypes="scsscsccccccs"
             inkscape:connector-curvature="0"
             id="path1311"
             style="font-style:normal;font-variant:normal;font-weight:normal;font-stretch:normal;font-family:'Kenney Future';-inkscape-font-specification:'Kenney Future';fill:#ffffff;stroke-width:1.05570114"
             d="m -5.5446248,531.04629 c -1.4845793,0 -2.735475,-0.50861 -3.752687,-1.52582 -1.0172122,-1.04471 -1.5258182,-2.2956 -1.5258182,-3.75269 v -15.83552 c 0,-1.45709 0.508606,-2.69424 1.5258182,-3.71145 1.044704,-1.0447 2.2955997,-1.56705 3.752687,-1.56705 h 4.2063946 c 2.15171705,0 2.32479709,5.2785 0,5.2785 h -4.2063946 v 15.83552 h 4.2063946 c 2.02711468,0 2.17483217,5.27851 0,5.27851 z" />
        </g>
        <g
           aria-label="C"
           style="font-style:normal;font-weight:normal;font-size:42.22804642px;line-height:1.25;font-family:sans-serif;letter-spacing:0px;word-spacing:0px;fill:#ffffff;fill-opacity:1;stroke:none;stroke-width:1.05570114"
           id="g1317"
           transform="matrix(0.16857187,-0.29197505,0.29197505,0.16857187,-191.35864,385.62671)">
          <path
             d="m -5.5446248,531.04629 c -1.4845793,0 -2.735475,-0.50861 -3.752687,-1.52582 -1.0172122,-1.04471 -1.5258182,-2.2956 -1.5258182,-3.75269 v -15.83552 c 0,-1.45709 0.508606,-2.69424 1.5258182,-3.71145 1.044704,-1.0447 2.2955997,-1.56705 3.752687,-1.56705 h 4.2063946 c 2.15171705,0 2.32479709,5.2785 0,5.2785 h -4.2063946 v 15.83552 h 4.2063946 c 2.02711468,0 2.17483217,5.27851 0,5.27851 z"
             style="font-style:normal;font-variant:normal;font-weight:normal;font-stretch:normal;font-family:'Kenney Future';-inkscape-font-specification:'Kenney Future';fill:#ffffff;stroke-width:1.05570114"
             id="path1315"
             inkscape:connector-curvature="0"
             sodipodi:nodetypes="scsscsccccccs" />
        </g>
      </g>
      <path
         inkscape:connector-curvature="0"
         style="opacity:0.15500004;fill:#000000;fill-opacity:1;stroke:none;stroke-width:0.26458332;stroke-opacity:1"
         d="m -85.265661,443.4639 6.681763,72.02868 29.566671,7.61762 30.301509,-7.61762 6.280753,-72.02868 z m 35.352365,7.88429 h 30.268952 l -5.037418,57.76804 -24.302392,6.10917 z"
         id="path1147" />
    </g>
  </g>
</svg>
