<?xml version="1.0" encoding="UTF-8" standalone="no"?>
<!-- Created with Inkscape (http://www.inkscape.org/) -->

<svg
   xmlns:dc="http://purl.org/dc/elements/1.1/"
   xmlns:cc="http://creativecommons.org/ns#"
   xmlns:rdf="http://www.w3.org/1999/02/22-rdf-syntax-ns#"
   xmlns:svg="http://www.w3.org/2000/svg"
   xmlns="http://www.w3.org/2000/svg"
   xmlns:sodipodi="http://sodipodi.sourceforge.net/DTD/sodipodi-0.dtd"
   xmlns:inkscape="http://www.inkscape.org/namespaces/inkscape"
   width="72.830948mm"
   height="79.646507mm"
   viewBox="0 0 72.830948 79.646507"
   version="1.1"
   id="svg8"
   inkscape:version="0.92.4 (5da689c313, 2019-01-14)"
   sodipodi:docname="js.svg">
  <defs
     id="defs2" />
  <sodipodi:namedview
     id="base"
     pagecolor="#ffffff"
     bordercolor="#666666"
     borderopacity="1.0"
     inkscape:pageopacity="0.0"
     inkscape:pageshadow="2"
     inkscape:zoom="0.70000002"
     inkscape:cx="96.144549"
     inkscape:cy="182.97673"
     inkscape:document-units="mm"
     inkscape:current-layer="layer1"
     showgrid="false"
     inkscape:snap-smooth-nodes="false"
     inkscape:object-paths="true"
     inkscape:window-width="1280"
     inkscape:window-height="962"
     inkscape:window-x="-8"
     inkscape:window-y="-8"
     inkscape:window-maximized="1"
     inkscape:object-nodes="false"
     fit-margin-top="0"
     fit-margin-left="0"
     fit-margin-right="0"
     fit-margin-bottom="0" />
  <metadata
     id="metadata5">
    <rdf:RDF>
      <cc:Work
         rdf:about="">
        <dc:format>image/svg+xml</dc:format>
        <dc:type
           rdf:resource="http://purl.org/dc/dcmitype/StillImage" />
        <dc:title></dc:title>
      </cc:Work>
    </rdf:RDF>
  </metadata>
  <g
     inkscape:label="Layer 1"
     inkscape:groupmode="layer"
     id="layer1"
     transform="translate(1046.2845,-325.9213)">
    <g
       aria-label="W"
       style="font-style:normal;font-weight:normal;font-size:63.71085358px;line-height:1.25;font-family:sans-serif;letter-spacing:0px;word-spacing:0px;opacity:1;fill:#ffffff;fill-opacity:0.95454544;stroke:none;stroke-width:1.59277141"
       id="g4887"
       transform="matrix(0.85097917,0,0,0.85097917,-587.4888,52.903895)" />
    <g
       id="g1299"
       transform="translate(-1383.6846,-116.92847)">
      <path
         sodipodi:nodetypes="cccccc"
         inkscape:connector-curvature="0"
         id="path1255"
         d="m 337.40013,442.84977 h 72.83095 l -6.28084,72.02914 -30.30169,7.61718 -29.56668,-7.61718 z"
         style="opacity:1;fill:#ffd800;fill-opacity:0.85490196;stroke:none;stroke-width:0.26458332;stroke-opacity:1" />
      <path
         sodipodi:nodetypes="ccccccccccccccccc"
         inkscape:connector-curvature="0"
         id="path1257"
         d="m 350.79696,457.50013 2.5419,27.40177 31.92995,0.15734 -1.28379,11.64179 -10.02287,2.58466 -10.01135,-2.65323 -0.67751,-7.19108 -9.50828,0.0544 1.25557,13.53508 18.68957,4.81506 19.15405,-4.81521 2.35223,-26.97612 -33.04734,-0.31252 -0.79989,-9.16217 34.6804,-0.0811 0.78465,-8.9985 z"
         style="opacity:0;fill:#ffffff;stroke:none;stroke-width:0.1672471px;stroke-linecap:butt;stroke-linejoin:miter;stroke-opacity:1" />
      <path
         inkscape:connector-curvature="0"
         style="opacity:0.169;fill:#000000;fill-opacity:1;stroke:none;stroke-width:0.26458332;stroke-opacity:1"
         d="m 337.40017,442.84998 6.68177,72.02868 29.56667,7.61762 30.3015,-7.61762 6.28076,-72.02868 z m 35.35237,7.88429 h 30.26896 l -5.03743,57.76804 -24.30239,6.10917 z"
         id="path1263" />
      <g
         id="text1273"
         style="font-style:normal;font-weight:normal;font-size:54.51681519px;line-height:1.25;font-family:sans-serif;letter-spacing:0px;word-spacing:0px;fill:#000000;fill-opacity:1;stroke:none;stroke-width:1.3629204"
         transform="scale(0.84126174,1.1886907)"
         aria-label="J">
        <path
           sodipodi:nodetypes="cccccsssc"
           inkscape:connector-curvature="0"
           id="path1286"
           style="font-style:normal;font-variant:normal;font-weight:normal;font-stretch:normal;font-family:'Kenney Future';-inkscape-font-specification:'Kenney Future';fill:#ffffff;stroke-width:1.3629204"
           d="m 414.11398,422.76776 -1.5885,-6.8146 17.34622,3.17977 v -30.43818 h 8.87966 l 0.78627,31.5511 c 0.0478,1.91631 -1.02521,3.74506 -2.57907,4.84476 -1.62207,1.14797 -4.46431,1.86415 -6.22116,1.46394 z" />
      </g>
      <g
         id="text1277"
         style="font-style:normal;font-weight:normal;font-size:50.21343613px;line-height:1.25;font-family:sans-serif;letter-spacing:0px;word-spacing:0px;fill:#000000;fill-opacity:1;stroke:none;stroke-width:1.25533593"
         transform="scale(0.77485531,1.2905635)"
         aria-label="S">
        <path
           sodipodi:nodetypes="ccccscsscsccccscssssc"
           inkscape:connector-curvature="0"
           id="path1289"
           style="font-style:normal;font-variant:normal;font-weight:normal;font-stretch:normal;font-family:'Kenney Future';-inkscape-font-specification:'Kenney Future';fill:#ffffff;stroke-width:1.25533593"
           d="m 485.39056,392.83717 v -6.27668 l 17.30906,-1.95395 1.20725,-7.76403 h -12.23963 c -1.76531,0 -3.25275,-0.60478 -4.46232,-1.81435 -1.20957,-1.24226 -1.81436,-2.7297 -1.81436,-4.46232 v -6.27668 c 0,-1.73263 0.60479,-3.20372 1.81436,-4.41329 1.24226,-1.24226 2.7297,-1.86339 4.46232,-1.86339 h 25.10672 l -1.28048,6.27668 h -20.19224 v 6.27668 l 11.08649,0.21966 c 1.73168,0.0343 4.4972,0.4917 5.70677,1.73395 1.55438,1.55438 1.69713,2.4217 1.25977,4.86224 l -1.14628,6.39647 c -0.31454,1.7552 -0.49918,3.0331 -1.74144,4.24267 -1.24226,1.20957 -2.76104,1.5743 -4.41329,1.81435 z" />
      </g>
    </g>
  </g>
</svg>
